<?xml version="1.0" standalone="no"?>
<!DOCTYPE svg PUBLIC "-//W3C//DTD SVG 20010904//EN"
 "http://www.w3.org/TR/2001/REC-SVG-20010904/DTD/svg10.dtd">
<svg version="1.0" xmlns="http://www.w3.org/2000/svg"
 width="342.000000pt" height="342.000000pt" viewBox="0 0 342.000000 342.000000"
 preserveAspectRatio="xMidYMid meet">
<metadata>
Created by potrace 1.14, written by Peter Selinger 2001-2017
</metadata>
<g transform="translate(0.000000,342.000000) scale(0.100000,-0.100000)"
fill="#000000" stroke="none">
<path d="M1093 2747 c-3 -4 -11 -6 -19 -3 -7 3 -16 1 -19 -4 -3 -5 -21 -17
-39 -25 -18 -9 -39 -28 -46 -43 -6 -15 -11 -27 -10 -27 1 0 -3 -12 -9 -27 -7
-19 -7 -28 0 -28 6 0 8 -4 5 -9 -15 -24 86 -73 136 -65 64 9 148 65 148 98 0
9 4 16 9 16 13 0 3 84 -10 88 -5 2 -7 7 -4 12 3 5 -5 12 -17 16 -33 11 -118
12 -125 1z"/>
<path d="M991 2293 c-29 -15 -90 -105 -83 -125 1 -4 -3 -8 -9 -8 -5 0 -8 -4
-5 -9 3 -5 -1 -14 -9 -21 -8 -7 -13 -16 -10 -20 3 -5 1 -11 -5 -15 -6 -4 -8
-11 -5 -16 4 -5 1 -9 -4 -9 -6 0 -11 -11 -11 -25 0 -14 -5 -25 -12 -25 -6 0
-9 -3 -5 -6 3 -4 0 -19 -8 -34 -8 -15 -11 -30 -8 -34 4 -3 1 -6 -6 -6 -7 0
-10 -4 -6 -9 3 -5 1 -12 -5 -16 -6 -4 -8 -11 -5 -16 4 -5 1 -9 -5 -9 -6 0 -9
-4 -5 -9 3 -5 0 -15 -7 -23 -7 -7 -14 -20 -16 -28 -2 -8 -9 -18 -15 -22 -7 -4
-8 -8 -3 -8 5 0 3 -7 -4 -15 -9 -11 -9 -21 1 -45 16 -36 25 -35 47 5 9 17 20
32 23 35 3 3 12 16 18 28 7 13 15 21 19 18 9 -10 12 -39 4 -50 -4 -6 -7 -19
-8 -28 -1 -10 -2 -19 -4 -20 -1 -2 -3 -12 -5 -23 -5 -27 -13 -60 -15 -60 -1 0
-3 -9 -5 -20 -7 -40 -11 -55 -17 -61 -4 -3 -4 -12 -1 -20 3 -8 0 -14 -7 -14
-7 0 -10 -6 -7 -14 3 -8 3 -17 -1 -21 -4 -4 -8 -11 -8 -16 -1 -5 -2 -10 -4
-11 -2 -4 -11 -41 -12 -55 -1 -7 -5 -13 -10 -13 -5 0 -6 -4 -3 -10 3 -5 2 -10
-4 -10 -6 0 -8 -7 -5 -15 4 -8 1 -15 -6 -15 -7 0 -10 -6 -7 -13 8 -21 -30 -57
-63 -58 -3 -1 -11 -5 -17 -11 -7 -6 -13 -7 -13 -3 0 5 -8 1 -18 -8 -10 -10
-22 -14 -25 -10 -4 3 -7 2 -7 -4 0 -10 -49 -38 -62 -35 -5 1 -8 -3 -8 -8 0 -6
-6 -10 -12 -10 -7 0 -26 -11 -42 -25 -16 -14 -32 -25 -37 -25 -7 0 -141 -131
-167 -164 -6 -8 -12 -20 -12 -26 0 -5 -4 -10 -8 -10 -4 0 -8 -10 -9 -22 -1
-11 -6 -24 -10 -27 -16 -12 -26 -118 -12 -127 5 -3 7 -9 4 -14 -7 -11 63 -80
84 -81 66 -5 118 -3 129 4 6 5 12 7 12 3 0 -4 13 0 30 9 16 8 33 16 37 17 34
9 165 153 190 208 4 8 9 17 12 20 14 12 132 240 125 240 -2 0 2 10 11 23 8 13
12 27 8 30 -3 4 0 7 7 7 7 0 11 3 7 6 -14 14 26 64 68 85 25 12 45 27 45 31 0
5 5 6 10 3 6 -3 10 -2 10 3 0 5 8 12 18 16 22 7 55 28 64 41 4 6 8 6 8 2 0
-21 200 163 200 184 0 20 26 7 28 -13 1 -13 4 -41 7 -63 3 -22 6 -46 7 -52 1
-7 6 -13 11 -13 6 0 7 -3 4 -7 -4 -3 0 -15 10 -25 9 -10 13 -18 9 -18 -17 0
69 -73 95 -80 56 -16 189 13 189 41 0 5 5 9 11 9 13 0 81 72 117 125 15 22 35
49 45 59 9 11 17 25 17 31 0 7 9 20 20 30 11 10 18 20 15 23 -3 3 1 12 7 20 7
8 17 23 23 34 22 44 30 16 32 -109 2 -130 4 -157 15 -169 4 -3 4 -12 1 -20 -3
-8 0 -14 6 -14 6 0 11 -7 11 -15 0 -9 11 -28 24 -42 20 -22 34 -26 83 -28 32
-2 64 2 71 7 6 6 12 7 12 3 0 -5 9 0 21 11 12 10 24 19 28 19 16 -1 129 107
171 163 14 18 35 45 47 60 13 15 23 30 23 33 0 3 11 19 25 35 14 16 25 35 25
42 0 6 5 12 11 12 5 0 7 5 4 10 -3 6 -1 10 4 10 6 0 11 5 11 11 0 6 8 21 18
33 20 26 34 18 46 -27 3 -15 11 -27 17 -27 6 0 7 -4 4 -10 -3 -5 -1 -10 4 -10
6 0 11 -5 11 -11 0 -17 61 -70 103 -89 44 -20 116 -18 169 4 40 17 114 88 124
118 3 10 10 18 15 18 6 0 7 5 4 10 -3 6 -1 10 4 10 6 0 10 3 9 8 -1 4 3 16 9
28 11 18 9 23 -13 33 -21 9 -26 8 -31 -7 -9 -25 -64 -104 -84 -122 -31 -27
-61 -45 -70 -42 -5 1 -9 -2 -9 -7 0 -15 -67 -5 -85 12 -9 9 -20 17 -23 17 -26
0 -62 192 -43 225 5 9 8 35 13 93 1 6 6 12 11 12 6 0 7 3 4 7 -4 3 -2 12 4 20
6 7 9 13 5 13 -4 0 4 20 18 44 13 24 22 47 19 50 -4 3 -1 6 5 6 6 0 9 10 6 23
-3 12 -6 27 -8 34 -3 18 -37 60 -50 61 -57 8 -75 7 -101 -6 -27 -13 -47 -34
-51 -54 -1 -5 -2 -9 -4 -10 -1 -2 -3 -10 -5 -18 -2 -8 -7 -26 -10 -40 -3 -14
-9 -61 -11 -104 -5 -76 -33 -160 -58 -178 -6 -4 -7 -8 -3 -8 5 0 0 -12 -11
-27 -11 -16 -23 -38 -26 -50 -4 -13 -11 -23 -14 -23 -4 0 -18 -20 -32 -45 -14
-25 -28 -45 -32 -45 -5 0 -8 -7 -8 -15 0 -8 -4 -15 -10 -15 -5 0 -10 -6 -10
-13 0 -16 -127 -151 -156 -166 -46 -23 -88 3 -93 59 -8 77 5 303 24 410 3 19
7 45 8 58 0 12 4 22 9 22 4 0 5 6 2 14 -3 8 -1 17 5 20 6 4 8 13 4 21 -3 8 -1
15 4 15 20 0 8 65 -16 84 -33 27 -92 28 -111 2 -8 -12 -14 -24 -12 -28 1 -5
-3 -8 -8 -8 -5 0 -9 -3 -9 -7 1 -5 0 -10 -1 -13 -3 -8 -11 -43 -15 -65 -2 -11
-6 -35 -9 -54 -7 -35 -44 -111 -61 -123 -5 -4 -6 -8 -2 -8 5 0 -1 -13 -12 -29
-12 -16 -21 -34 -21 -40 0 -6 -5 -11 -11 -11 -5 0 -7 -4 -4 -10 3 -5 1 -10 -4
-10 -6 0 -11 -5 -11 -10 0 -6 -12 -28 -27 -49 -16 -21 -35 -49 -43 -61 -15
-22 -36 -48 -69 -85 -23 -26 -71 -66 -71 -60 0 3 -10 -1 -22 -9 -44 -27 -82
-12 -107 45 -13 28 -16 59 -14 126 4 107 5 113 13 113 3 0 7 9 8 20 4 44 6 50
14 50 5 0 7 4 3 9 -3 5 -1 12 5 16 6 4 8 11 4 16 -3 5 0 16 6 24 7 8 9 15 5
15 -5 0 0 9 10 20 10 11 15 20 10 20 -4 0 -2 6 4 13 6 8 8 17 4 20 -3 4 -1 7
6 7 7 0 9 5 6 10 -3 6 -1 10 6 10 7 0 10 3 6 6 -3 3 8 27 24 54 16 26 29 51
29 55 0 10 -53 51 -62 47 -5 -1 -8 1 -8 5 0 5 -13 9 -29 10 -20 1 -37 -6 -55
-23 -34 -35 -115 -204 -132 -276 -1 -5 -3 -10 -4 -13 -1 -3 -4 -9 -5 -15 -1
-5 -4 -13 -5 -17 -1 -5 -3 -12 -4 -18 -3 -16 -30 -69 -41 -81 -5 -6 -19 -23
-30 -39 -26 -36 -112 -123 -154 -155 -18 -14 -39 -31 -46 -37 -8 -7 -18 -13
-23 -13 -6 0 -12 -3 -14 -7 -1 -5 -27 -23 -56 -40 -63 -39 -72 -30 -43 44 11
28 17 53 14 57 -3 3 0 12 7 21 7 8 9 15 5 15 -4 0 -2 7 5 15 7 8 10 15 7 15
-3 0 1 16 9 35 8 19 12 35 9 35 -2 0 0 11 5 25 10 25 18 62 24 100 2 11 4 20
6 20 1 0 3 9 5 20 5 26 13 60 15 60 3 0 18 71 24 115 2 14 5 25 6 25 1 0 4 11
6 25 2 14 6 41 9 60 13 80 12 131 -1 144 -7 8 -11 16 -9 20 3 3 2 4 -2 1 -3
-3 -13 1 -21 7 -21 18 -36 18 -71 1z m-360 -1172 c-10 -15 -22 -36 -25 -48 -4
-13 -11 -23 -14 -23 -4 0 -16 -17 -27 -37 -38 -74 -157 -209 -201 -228 -33
-14 -66 -13 -72 3 -21 56 10 127 90 206 54 53 177 143 191 138 4 -1 7 3 7 10
0 6 3 8 6 5 4 -3 16 0 27 8 30 21 41 -2 18 -34z"/>
</g>
</svg>
